<?xml version="1.0" standalone="no"?>
<!DOCTYPE svg PUBLIC "-//W3C//DTD SVG 20010904//EN"
 "http://www.w3.org/TR/2001/REC-SVG-20010904/DTD/svg10.dtd">
<svg version="1.0" xmlns="http://www.w3.org/2000/svg"
 width="512.000000pt" height="512.000000pt" viewBox="0 0 512.000000 512.000000"
 preserveAspectRatio="xMidYMid meet">
<metadata>
Created by potrace 1.11, written by Peter Selinger 2001-2013
</metadata>
<g transform="translate(0.000000,512.000000) scale(0.100000,-0.100000)"
fill="#000000" stroke="none">
<path d="M4121 5097 c-12 -13 -34 -30 -49 -38 -38 -20 -207 -137 -302 -209
-107 -81 -274 -247 -343 -340 -55 -74 -148 -242 -160 -289 -6 -23 -6 -23 -111
33 l-105 57 -133 -42 c-73 -23 -153 -47 -178 -54 -25 -8 -90 -28 -145 -45 -55
-17 -104 -29 -110 -26 -6 2 -19 28 -29 57 -45 125 -165 301 -284 416 -80 78
-190 173 -200 173 -5 0 -12 3 -14 8 -6 14 -92 77 -235 173 l-144 96 -57 -18
c-31 -10 -111 -34 -177 -54 -106 -33 -295 -99 -365 -128 -14 -6 -27 -11 -30
-12 -3 -1 -16 -6 -30 -12 -189 -81 -298 -134 -303 -148 -3 -6 -1 -34 4 -61 32
-176 197 -314 529 -444 58 -23 112 -43 120 -45 8 -2 58 -18 110 -35 52 -18
100 -33 105 -34 6 -1 37 -11 70 -21 33 -10 65 -19 70 -21 120 -30 255 -70 255
-76 0 -7 -34 -3 -48 6 -17 10 -68 17 -134 17 -71 0 -150 -28 -195 -70 -25 -23
-146 -85 -188 -96 -16 -4 -100 -9 -185 -10 -227 -3 -397 -38 -568 -115 -133
-61 -270 -172 -360 -292 -86 -114 -167 -286 -178 -378 l-4 -35 121 -70 c67
-38 138 -79 158 -90 102 -58 98 -52 93 -107 l-4 -51 29 8 c81 20 108 18 161
-15 36 -22 52 -39 53 -53 1 -28 5 -62 12 -112 4 -22 9 -74 12 -115 3 -41 8
-82 10 -90 2 -8 7 -51 10 -94 4 -43 8 -86 10 -95 3 -17 14 -122 20 -201 3 -25
7 -67 10 -95 11 -92 14 -119 25 -222 6 -56 13 -121 15 -145 5 -60 16 -169 20
-194 5 -34 24 -209 31 -289 2 -27 6 -59 8 -70 3 -11 5 -28 5 -37 1 -10 16 -21
38 -29 21 -6 43 -15 48 -18 11 -7 18 -10 305 -121 102 -40 194 -76 205 -81 11
-4 56 -22 100 -39 44 -17 89 -35 100 -40 11 -5 92 -37 180 -71 88 -33 174 -67
190 -74 17 -7 102 -41 190 -76 202 -78 621 -243 699 -273 l58 -24 57 23 c59
23 146 59 196 80 17 7 116 48 220 90 105 42 204 83 220 90 17 7 120 50 230 95
110 44 209 85 220 90 11 5 110 46 220 90 110 45 201 83 203 84 3 4 8 30 16 86
3 25 8 56 11 70 2 13 7 42 10 65 3 22 8 51 10 65 3 14 7 41 10 60 3 19 7 46
10 60 2 14 7 43 10 65 5 35 14 93 31 200 2 17 6 41 9 55 3 14 7 39 9 55 22
152 24 161 46 295 5 30 11 73 14 95 3 22 7 49 9 60 3 11 7 41 11 66 4 25 9 57
11 70 13 75 47 289 51 319 2 19 8 60 14 90 5 30 11 71 14 90 15 110 19 136 22
142 2 3 49 -10 105 -29 55 -19 103 -32 106 -30 4 5 8 46 18 202 3 44 7 107 10
140 14 176 16 228 11 249 -3 14 -23 32 -53 48 -51 26 -114 61 -280 153 -91 50
-103 59 -103 83 0 24 -11 33 -87 73 -49 26 -122 64 -163 86 -41 22 -149 79
-240 126 -91 47 -198 102 -238 124 -55 29 -75 35 -81 25 -6 -10 -13 -10 -37 3
-28 14 -26 19 7 16 20 -2 304 80 434 126 55 19 105 36 110 37 6 2 21 8 35 13
14 6 50 21 80 33 175 69 420 215 516 306 97 93 151 192 150 277 l-1 48 -155
71 c-217 98 -627 248 -680 247 -3 0 -32 10 -64 21 -73 25 -68 25 -95 -3z"/>
</g>
</svg>
